<?xml version="1.0" standalone="no"?>
<!DOCTYPE svg PUBLIC "-//W3C//DTD SVG 20010904//EN"
 "http://www.w3.org/TR/2001/REC-SVG-20010904/DTD/svg10.dtd">
<svg version="1.0" xmlns="http://www.w3.org/2000/svg"
 width="800.000000pt" height="800.000000pt" viewBox="0 0 800.000000 800.000000"
 preserveAspectRatio="xMidYMid meet">
<metadata>
Created by potrace 1.14, written by Peter Selinger 2001-2017
</metadata>
<g transform="translate(0.000000,800.000000) scale(0.100000,-0.100000)"
fill="#000000" stroke="none">
<path d="M3610 7986 c-1105 -116 -2091 -659 -2767 -1523 -441 -563 -715 -1220
-814 -1948 -26 -193 -37 -633 -20 -838 93 -1119 646 -2144 1528 -2834 563
-441 1220 -715 1948 -814 193 -26 633 -37 838 -20 1119 93 2144 646 2834 1528
441 563 715 1219 814 1948 26 193 37 633 20 838 -93 1119 -646 2144 -1528
2834 -563 441 -1217 714 -1948 814 -193 27 -712 35 -905 15z m1400 -1769 c112
-17 280 -55 330 -76 19 -7 4 -10 -71 -10 -354 -3 -3182 -83 -3218 -91 -112
-28 -221 -113 -271 -213 l-30 -60 0 237 0 237 1573 -4 c1425 -3 1583 -5 1687
-20z m-3142 -868 c55 -49 128 -85 200 -99 34 -6 280 -3 769 10 395 11 755 20
801 20 l82 0 0 -411 0 -411 125 4 125 4 -24 -26 c-45 -49 -2099 -2216 -2147
-2265 l-49 -50 0 1704 0 1704 35 -71 c23 -45 53 -87 83 -113z m4361 -39 c45
-137 56 -216 56 -410 0 -140 -4 -205 -18 -268 -17 -80 -76 -257 -83 -250 -1 2
-8 174 -13 383 -6 209 -13 459 -15 555 l-5 175 28 -60 c16 -33 39 -89 50 -125z
m-1567 -117 c-61 -65 -162 -172 -226 -238 l-115 -120 0 47 c-2 154 -85 315
-194 378 -45 26 -48 30 -27 31 44 3 471 15 574 17 l98 2 -110 -117z m733
-1764 c19 -723 37 -1332 40 -1355 14 -96 95 -219 184 -276 l45 -28 -531 0
-531 0 -6 88 c-30 378 -91 726 -171 969 -14 43 -53 133 -86 200 -47 96 -75
138 -130 196 -38 41 -92 89 -119 107 l-50 32 108 113 c776 820 1208 1272 1210
1270 2 -2 19 -594 37 -1316z m937 -397 c133 -311 243 -719 292 -1087 9 -66 18
-132 21 -147 l5 -28 -328 0 -327 0 51 30 c92 52 162 155 184 268 6 35 5 222
-5 574 -8 288 -15 550 -14 583 l0 60 36 -70 c20 -38 58 -121 85 -183z m-2615
-1259 c-2 -2 -269 -2 -594 -1 l-589 3 590 622 591 623 3 -622 c1 -342 1 -623
-1 -625z"/>
</g>
</svg>
