<!DOCTYPE svg PUBLIC "-//W3C//DTD SVG 1.1//EN" "http://www.w3.org/Graphics/SVG/1.1/DTD/svg11.dtd">
<!-- Uploaded to: SVG Repo, www.svgrepo.com, Transformed by: SVG Repo Mixer Tools -->
<svg fill="#0118db" width="800px" height="800px" viewBox="0 0 32 32" version="1.1" xmlns="http://www.w3.org/2000/svg" stroke="#0118db">
<g id="SVGRepo_bgCarrier" stroke-width="0"/>
<g id="SVGRepo_tracerCarrier" stroke-linecap="round" stroke-linejoin="round"/>
<g id="SVGRepo_iconCarrier"> <title>store</title> <path d="M0 10.016l4-10.016h24l4 10.016q0 1.664-1.184 2.816t-2.816 1.184-2.816-1.184-1.184-2.816q0 1.664-1.184 2.816t-2.816 1.184-2.816-1.184-1.184-2.816q0 1.664-1.184 2.816t-2.816 1.184-2.816-1.184-1.184-2.816q0 1.664-1.184 2.816t-2.816 1.184-2.816-1.184-1.184-2.816zM2.016 30.016h28v1.984h-28v-1.984zM4 28v-12q2.272 0 4-1.536v9.536h16v-9.536q1.728 1.536 4 1.536v12h-24z"/> </g>
</svg>